<?xml version="1.0" encoding="UTF-8" standalone="no"?>
<!-- Created with Inkscape (http://www.inkscape.org/) -->

<svg
   width="210mm"
   height="297mm"
   viewBox="0 0 210 297"
   version="1.1"
   id="svg656"
   inkscape:version="1.1.1 (3bf5ae0d25, 2021-09-20)"
   sodipodi:docname="bgpages.svg"
   xmlns:inkscape="http://www.inkscape.org/namespaces/inkscape"
   xmlns:sodipodi="http://sodipodi.sourceforge.net/DTD/sodipodi-0.dtd"
   xmlns="http://www.w3.org/2000/svg"
   xmlns:svg="http://www.w3.org/2000/svg">
  <sodipodi:namedview
     id="namedview658"
     pagecolor="#ffffff"
     bordercolor="#666666"
     borderopacity="1.0"
     inkscape:pageshadow="2"
     inkscape:pageopacity="0.0"
     inkscape:pagecheckerboard="0"
     inkscape:document-units="mm"
     showgrid="false"
     inkscape:zoom="0.77771465"
     inkscape:cx="-49.504018"
     inkscape:cy="660.26788"
     inkscape:window-width="1920"
     inkscape:window-height="1008"
     inkscape:window-x="0"
     inkscape:window-y="0"
     inkscape:window-maximized="1"
     inkscape:current-layer="layer1" />
  <defs
     id="defs653" />
  <g
     inkscape:label="Layer 1"
     inkscape:groupmode="layer"
     id="layer1">
    <path
       d="m 154.12953,215.32142 45.82582,27.51355 v 18.28735 L 154.12953,288.643 108.30334,261.12232 v -18.28715 z"
       fill="#A5B4FC"
       class="ccompli2"
       id="path113-3"
       style="fill:#0073e4;fill-opacity:0.33;stroke-width:1.83304;opacity:0.05" />
    <path
       fill-rule="evenodd"
       clip-rule="evenodd"
       d="m 108.30334,242.83497 45.82601,-27.51355 45.826,27.51355 v 18.28735 l -45.826,27.52068 -45.82601,-27.52068 z m 45.82601,34.13341 36.10484,-21.68264 v -6.61197 l -0.002,-10e-4 -36.103,21.67606 -36.10308,-21.67606 -0.002,10e-4 v 6.61197 z m 0,-16.72904 27.6822,-16.62019 -6.74357,-4.04701 -20.93863,12.5716 -20.93864,-12.5716 -6.74353,4.04701 z m 0,-18.20505 12.51783,-7.51566 -12.51783,-7.51219 -12.51783,7.51219 z"
       fill="#4F46E5"
       class="ccustom"
       id="path115-6"
       style="fill:#0073e4;fill-opacity:1;stroke-width:1.83304;opacity:0.05" />
    <path
       d="m 154.12953,215.32142 -45.82619,27.51375 v 18.28715 l 45.82601,27.52068 z"
       fill="#A5B4FC"
       class="ccompli2"
       fill-opacity="0.3"
       id="path117-7"
       style="fill:#05386e;fill-opacity:0.6;stroke-width:1.83304;opacity:0.05" />
  </g>
</svg>
