<?xml version="1.0" encoding="UTF-8" standalone="no"?>
<!-- Created with Inkscape (http://www.inkscape.org/) -->

<svg
   version="1.1"
   id="svg1007"
   xml:space="preserve"
   width="793.70074"
   height="1122.5197"
   viewBox="0 0 793.70074 1122.5197"
   sodipodi:docname="bgtitleblue.svg"
   inkscape:version="1.1.1 (3bf5ae0d25, 2021-09-20)"
   xmlns:inkscape="http://www.inkscape.org/namespaces/inkscape"
   xmlns:sodipodi="http://sodipodi.sourceforge.net/DTD/sodipodi-0.dtd"
   xmlns="http://www.w3.org/2000/svg"
   xmlns:svg="http://www.w3.org/2000/svg"><defs
     id="defs1011"><rect
       x="891.94904"
       y="27.310973"
       width="661.77916"
       height="512.84684"
       id="rect8119" /></defs><sodipodi:namedview
     id="namedview1009"
     pagecolor="#ffffff"
     bordercolor="#666666"
     borderopacity="1.0"
     inkscape:pageshadow="2"
     inkscape:pageopacity="0.0"
     inkscape:pagecheckerboard="0"
     showgrid="false"
     inkscape:zoom="0.81454783"
     inkscape:cx="190.28962"
     inkscape:cy="446.25986"
     inkscape:window-width="1920"
     inkscape:window-height="1008"
     inkscape:window-x="0"
     inkscape:window-y="0"
     inkscape:window-maximized="1"
     inkscape:current-layer="g1013" /><g
     id="g1013"
     inkscape:groupmode="layer"
     inkscape:label="bgtitleblue"
     transform="matrix(1.3333333,0,0,1.3333333,0,3.3396326e-5)"><g
       id="g1015"><path
         d="M 0,0.004 H 595.277 V 841.891 H 0 Z"
         style="fill:#05386e;fill-opacity:1;fill-rule:nonzero;stroke:none"
         id="path1017" /><path
         d="M 595.277,841.891 V 293.914 L 0,841.891 Z"
         style="fill:#003f7d;fill-opacity:1;fill-rule:nonzero;stroke:none"
         id="path1019" /><path
         d="M 0,552.945 412.113,841.891 H 0 Z"
         style="fill:#0752a1;fill-opacity:1;fill-rule:nonzero;stroke:none"
         id="path1021" /><path
         d="M 178.176,677.871 0,841.891 h 412.113 z"
         style="fill:#0073e4;fill-opacity:1;fill-rule:nonzero;stroke:none"
         id="path1023" /></g><path
       fill-rule="evenodd"
       clip-rule="evenodd"
       d="m 414.53097,43.300148 c -11.12829,-11.12332 -29.16607,-11.11964 -40.28919,0.008 l -92.83255,92.870692 -0.0795,-0.0199 -0.29302,0.0298 c 0.12118,0.0596 0.23938,0.11523 0.3556,0.17383 -16.28473,1.70597 -23.19413,6.59959 -23.27241,12.88412 0.0298,2.3377 0.98634,4.86243 2.74853,7.48322 l -0.0894,0.0894 c 14.80454,22.32878 88.14563,51.784 140.03243,31.82709 -38.88716,19.44358 -130.46817,23.29733 -157.36706,-14.45451 -5.84152,6.31949 -8.2856,14.62436 -7.36522,22.60522 7.10597,39.16578 86.55051,49.85076 165.99574,-6.8954 l 17.1916,17.1915 c -21.39241,21.97796 -52.99163,149.6389 -6.03868,130.14764 1.11367,-0.75589 2.05908,-1.43262 3.34489,-2.40554 l 2.09256,-1.97565 c -0.12119,0.0298 -0.24038,0.0596 -0.35957,0.0894 l 125.7501,-118.71525 c 11.67578,-11.02329 11.94029,-29.51252 0.58306,-40.86509 z m -13.69394,38.6881 4.29775,-17.1914 4.29765,17.1914 12.89385,4.29796 -12.89385,4.29804 -4.29765,17.191512 -4.29775,-17.191512 -12.89385,-4.29804 z m -53.19715,56.120992 2.86514,-11.46124 2.86513,11.46124 8.5961,2.86513 -8.5961,2.86513 -2.86513,11.46134 -2.86514,-11.46134 -8.5954,-2.86513 z m 99.79251,96.67338 -2.86513,11.46054 -8.59541,2.86583 8.59541,2.86514 2.86513,11.46054 2.86513,-11.46054 8.5961,-2.86514 -8.5961,-2.86583 z"
       class="ccustom"
       fill="#007dfc"
       id="path931"
       style="stroke-width:7.44965" /><path
       fill-rule="evenodd"
       clip-rule="evenodd"
       d="m 553.74403,54.676758 c -26.88349,0 -52.37847,11.94109 -69.58934,32.59379 l -61.22866,73.475192 35.35603,-53.03474 -58.68833,25.15219 c -7.45342,3.19441 -9.32328,12.90508 -3.59004,18.63902 l 18.88635,18.88566 -9.64282,11.57148 21.21441,21.21362 11.57079,-9.64282 18.88635,18.88635 c 5.73325,5.73325 15.44461,3.86338 18.63823,-3.58924 l 25.15229,-58.68833 -53.03404,35.35603 73.47508,-61.22936 c 20.65271,-17.21017 32.5937,-42.705152 32.5937,-69.588842 z m -58.3374,58.339082 c 5.85761,5.85771 15.35522,5.85771 21.21362,0 5.85761,-5.8584 5.85761,-15.355912 0,-21.213622 -5.8584,-5.8583 -15.35601,-5.8583 -21.21362,0 -5.8584,5.85771 -5.8584,15.355222 0,21.213622 z"
       class="ccompli2"
       fill="#003a74"
       id="path951"
       style="fill:#ffffff;stroke-width:7.44965" /><path
       opacity="0.6"
       d="m 242.76692,173.19787 c 14.04596,48.12324 99.44287,45.6142 158.03286,15.44978 -39.23283,19.60449 -132.04094,23.34869 -158.03286,-15.44978 z"
       fill="#424242"
       id="path953"
       style="fill:#ffffff;stroke-width:7.44965" /><path
       opacity="0.6"
       d="m 413.23255,337.23466 c -39.5636,16.42349 -23.35316,-71.63433 -4.47277,-112.90538 -13.76248,36.68356 -25.51058,117.55018 9.91021,108.52419 l -2.09255,1.97564 c -1.28581,0.97343 -2.23122,1.64936 -3.34489,2.40555 z"
       fill="#424242"
       id="path955"
       style="fill:#ffffff;stroke-width:7.44965" /><text
       xml:space="preserve"
       transform="matrix(0.75000002,0,0,0.75000002,0,-2.5047245e-5)"
       id="text8117"
       style="fill:black;fill-opacity:1;line-height:1.25;stroke:none;font-family:sans-serif;font-style:normal;font-weight:normal;font-size:40px;white-space:pre;shape-inside:url(#rect8119)" /></g></svg>
