<?xml version="1.0" encoding="UTF-8" standalone="no"?>
<!-- Created with Inkscape (http://www.inkscape.org/) -->

<svg
   version="1.1"
   id="svg1007"
   xml:space="preserve"
   width="793.70074"
   height="1122.5197"
   viewBox="0 0 793.70074 1122.5197"
   sodipodi:docname="bgtitleblue2.svg"
   inkscape:version="1.1.1 (3bf5ae0d25, 2021-09-20)"
   xmlns:inkscape="http://www.inkscape.org/namespaces/inkscape"
   xmlns:sodipodi="http://sodipodi.sourceforge.net/DTD/sodipodi-0.dtd"
   xmlns="http://www.w3.org/2000/svg"
   xmlns:svg="http://www.w3.org/2000/svg"><defs
     id="defs1011" /><sodipodi:namedview
     id="namedview1009"
     pagecolor="#ffffff"
     bordercolor="#666666"
     borderopacity="1.0"
     inkscape:pageshadow="2"
     inkscape:pageopacity="0.0"
     inkscape:pagecheckerboard="0"
     showgrid="false"
     inkscape:zoom="0.34552938"
     inkscape:cx="218.5053"
     inkscape:cy="638.15123"
     inkscape:window-width="1920"
     inkscape:window-height="1008"
     inkscape:window-x="0"
     inkscape:window-y="0"
     inkscape:window-maximized="1"
     inkscape:current-layer="g1013" /><g
     id="g1013"
     inkscape:groupmode="layer"
     inkscape:label="bgtitleblue"
     transform="matrix(1.3333333,0,0,1.3333333,0,3.3396326e-5)"><g
       id="g1015"><path
         d="M 0,0.004 H 595.277 V 841.891 H 0 Z"
         style="fill:#05386e;fill-opacity:1;fill-rule:nonzero;stroke:none"
         id="path1017" /><path
         d="M 595.277,841.891 V 293.914 L 0,841.891 Z"
         style="fill:#003f7d;fill-opacity:1;fill-rule:nonzero;stroke:none"
         id="path1019" /><path
         d="M 0,552.945 412.113,841.891 H 0 Z"
         style="fill:#0752a1;fill-opacity:1;fill-rule:nonzero;stroke:none"
         id="path1021" /><path
         d="M 178.176,677.871 0,841.891 h 412.113 z"
         style="fill:#0073e4;fill-opacity:1;fill-rule:nonzero;stroke:none"
         id="path1023" /></g><path
       d="M 371.69261,38.477006 545.92175,143.08315 V 212.6114 L 371.69261,317.24455 197.46216,212.6114 v -69.52753 z"
       fill="#a5b4fc"
       class="ccompli2"
       id="path113"
       style="opacity:0.08;stroke-width:6.96918" /><path
       fill-rule="evenodd"
       clip-rule="evenodd"
       d="M 197.46216,143.08315 371.69177,38.477006 545.92175,143.08315 V 212.6114 L 371.69177,317.24455 197.46216,212.6114 Z M 371.69177,272.8578 508.96191,190.42075 v -25.1386 l -0.008,-0.008 -137.26319,82.4121 -137.26324,-82.4121 -0.008,0.008 v 25.1386 z m 0,-63.60354 105.2475,-63.18974 -25.63903,-15.38663 -79.60847,47.79705 -79.60834,-47.79705 -25.6388,15.38663 z m 0,-69.21534 47.5926,-28.57437 -47.5926,-28.561224 -47.59256,28.561224 z"
       fill="#4f46e5"
       class="ccustom"
       id="path115"
       style="opacity:1;fill:#ffffff;stroke-width:6.96918" /><path
       d="M 371.69261,38.477006 197.46216,143.08387 v 69.52753 l 174.22961,104.63315 z"
       fill="#a5b4fc"
       class="ccompli2"
       fill-opacity="0.3"
       id="path117"
       style="opacity:0.08;fill:#ffffff;stroke-width:6.96918" /></g></svg>
